<?xml version="1.0" encoding="iso-8859-1"?>
<!-- Generator: Adobe Illustrator 19.0.0, SVG Export Plug-In . SVG Version: 6.00 Build 0)  -->
<svg version="1.1" id="Capa_1" xmlns="http://www.w3.org/2000/svg" xmlns:xlink="http://www.w3.org/1999/xlink" x="0px" y="0px"
	 viewBox="0 0 477.518 477.518" style="enable-background:new 0 0 477.518 477.518;" xml:space="preserve">
<path style="fill:#1185E0;" d="M238.759,375.575c-67.396,0-134.792-26.645-188.604-80.457L4.702,249.665
	C1.567,246.531,0,242.873,0,238.694c0-4.18,1.567-8.359,4.702-10.971l45.976-45.453c107.102-107.102,269.061-107.102,376.686,0
	l45.453,45.453c6.269,6.269,6.269,16.196,0,21.943l-45.453,45.453C373.551,348.931,306.155,375.575,238.759,375.575z
	 M38.139,238.694l34.482,34.482c95.086,94.563,238.237,94.563,333.322,0l34.482-34.482l-34.482-34.482
	c-95.086-94.563-238.237-94.563-332.8,0L38.139,238.694z"/>
<path style="fill:#4DCFE0;" d="M238.759,332.212c-51.722,0-93.518-41.796-93.518-93.518s41.796-93.518,93.518-93.518
	s93.518,41.796,93.518,93.518S290.482,332.212,238.759,332.212z M238.759,176.522c-34.482,0-62.171,27.69-62.171,62.171
	s27.69,62.171,62.171,62.171s62.171-27.69,62.171-62.171S273.241,176.522,238.759,176.522z"/>
<path style="fill:#1185E0;" d="M238.759,281.535c-23.51,0-42.841-19.331-42.841-42.841h31.347c0,6.269,5.224,11.494,11.494,11.494
	s11.494-5.224,11.494-11.494s-5.224-11.494-11.494-11.494v-31.347c23.51,0,42.841,19.331,42.841,42.841
	S262.269,281.535,238.759,281.535z"/>
<g>
</g>
<g>
</g>
<g>
</g>
<g>
</g>
<g>
</g>
<g>
</g>
<g>
</g>
<g>
</g>
<g>
</g>
<g>
</g>
<g>
</g>
<g>
</g>
<g>
</g>
<g>
</g>
<g>
</g>
</svg>
