<svg enable-background="new 0 0 64 64" height="512" viewBox="0 0 64 64" width="512" xmlns="http://www.w3.org/2000/svg"><path d="m35 6.167h-6v.708c-11.372 2.706-19.832 12.924-19.832 25.125s8.46 22.419 19.832 25.126v.005.703h6c14.268 0 25.834-11.566 25.834-25.834 0-14.267-11.566-25.833-25.834-25.833z" fill="#efc36a"/><path d="m35 58.333h-6c-.276 0-.5-.224-.5-.5v-.316c-11.697-2.966-19.832-13.403-19.832-25.517s8.135-22.551 19.832-25.517v-.316c0-.276.224-.5.5-.5h6c14.521 0 26.334 11.813 26.334 26.333s-11.813 26.333-26.334 26.333zm-5.5-1h5.5c13.969 0 25.334-11.365 25.334-25.334 0-13.968-11.365-25.332-25.334-25.332h-5.5v.208c0 .231-.159.433-.384.486-11.451 2.725-19.448 12.857-19.448 24.639s7.997 21.915 19.448 24.64c.225.054.384.255.384.486z" fill="#63312d"/><path d="m3.168 32c0 14.268 11.564 25.834 25.832 25.834s25.834-11.567 25.834-25.834-11.566-25.833-25.834-25.833-25.832 11.566-25.832 25.833z" fill="#f9dd9d"/><path d="m29 58.333c-14.52 0-26.332-11.813-26.332-26.333 0-14.521 11.812-26.333 26.332-26.333 14.521 0 26.334 11.813 26.334 26.333s-11.813 26.333-26.334 26.333zm0-51.666c-13.968 0-25.332 11.364-25.332 25.333s11.364 25.334 25.332 25.334c13.969 0 25.334-11.365 25.334-25.334s-11.365-25.333-25.334-25.333z" fill="#63312d"/><path d="m6.084 32c0 12.657 10.26 22.918 22.916 22.918 12.658 0 22.918-10.261 22.918-22.918 0-12.656-10.26-22.917-22.918-22.917-12.656 0-22.916 10.26-22.916 22.917z" fill="#f8f3f3"/><path d="m29 55.417c-12.912 0-23.416-10.505-23.416-23.417 0-12.913 10.504-23.417 23.416-23.417 12.913 0 23.418 10.505 23.418 23.417s-10.505 23.417-23.418 23.417zm0-45.834c-12.36 0-22.416 10.056-22.416 22.417s10.056 22.417 22.416 22.417c12.361 0 22.418-10.057 22.418-22.418 0-12.36-10.057-22.416-22.418-22.416z" fill="#63312d"/><path d="m39.344 15.003-3.332 5.476c3.885 2.37 6.488 6.636 6.488 11.521 0 2.577-.734 4.976-1.986 7.024l5.473 3.338c1.848-3.021 2.932-6.561 2.932-10.362-.001-7.207-3.842-13.5-9.575-16.997z" fill="#f9a287"/><path d="m45.986 42.862c-.089 0-.179-.023-.261-.073l-5.473-3.338c-.113-.069-.194-.18-.226-.309s-.01-.265.06-.378c1.253-2.049 1.914-4.388 1.914-6.764 0-4.56-2.336-8.707-6.249-11.094-.235-.144-.31-.451-.166-.687l3.332-5.476c.068-.113.18-.195.309-.226.13-.032.266-.01.379.059 6.145 3.748 9.813 10.261 9.813 17.423 0 3.735-1.039 7.408-3.005 10.623-.095.155-.259.24-.427.24zm-4.793-4.009 4.621 2.819c1.705-2.953 2.604-6.286 2.604-9.672 0-6.645-3.321-12.702-8.91-16.304l-2.813 4.624c3.957 2.605 6.305 6.934 6.305 11.68 0 2.395-.623 4.753-1.807 6.853z" fill="#63312d"/><path d="m29 12.083c-3.736 0-7.221 1.048-10.209 2.838-5.808 3.48-9.707 9.816-9.707 17.079 0 3.858 1.114 7.448 3.014 10.499l5.445-3.382c-1.287-2.069-2.043-4.502-2.043-7.117 0-4.923 2.644-9.217 6.58-11.576 2.025-1.214 4.387-1.924 6.92-1.924 2.572 0 4.967.732 7.012 1.979l3.332-5.476c-3.018-1.841-6.55-2.92-10.344-2.92z" fill="#84dbff"/><path d="m11.084 32c0-7.263 3.899-13.599 9.707-17.079 2.717-1.628 5.848-2.633 9.202-2.803-.329-.017-.659-.035-.993-.035-3.736 0-7.221 1.048-10.209 2.838-5.808 3.48-9.707 9.816-9.707 17.079 0 3.858 1.114 7.448 3.014 10.499l1.472-.915c-1.572-2.845-2.486-6.104-2.486-9.584z" fill="#caf4ff"/><path d="m12.098 42.998c-.167 0-.33-.083-.425-.236-2.021-3.246-3.089-6.968-3.089-10.762 0-7.229 3.72-13.774 9.95-17.507 3.178-1.904 6.797-2.91 10.466-2.91 3.727 0 7.394 1.035 10.604 2.994.235.144.31.451.166.687l-3.332 5.476c-.068.113-.18.195-.309.226-.13.03-.267.01-.379-.059-4.057-2.475-9.336-2.496-13.414-.054-3.967 2.377-6.336 6.545-6.336 11.147 0 2.415.681 4.784 1.968 6.852.069.113.092.249.063.378-.03.129-.11.241-.224.311l-5.445 3.382c-.083.051-.174.075-.264.075zm16.902-30.415c-3.488 0-6.93.957-9.952 2.767-5.926 3.551-9.464 9.775-9.464 16.65 0 3.443.925 6.822 2.68 9.807l4.598-2.856c-1.219-2.123-1.862-4.515-1.862-6.951 0-4.957 2.551-9.444 6.823-12.005 4.249-2.544 9.717-2.615 14.017-.196l2.813-4.624c-2.948-1.697-6.275-2.592-9.653-2.592z" fill="#63312d"/><path d="m25.5 47.402 3.5-26.25 3.5 26.25c.258 1.933-1.1 3.709-3.033 3.967s-3.709-1.101-3.967-3.034c-.041-.311-.037-.636 0-.933z" fill="#f9dd9d"/><path d="m27.5 48.335c-.041-.311-.037-.636 0-.933l2.5-18.75-1-7.5-3.5 26.25c-.037.297-.041.622 0 .933.258 1.933 2.034 3.292 3.967 3.034.182-.024.352-.074.521-.124-1.287-.387-2.299-1.491-2.488-2.91z" fill="#ffeecf"/><path d="m28.992 51.9c-.88 0-1.73-.287-2.44-.83-.855-.654-1.405-1.603-1.548-2.67-.044-.339-.044-.706 0-1.061 0-.001 0-.002 0-.004l3.5-26.25c.033-.249.245-.434.496-.434s.463.186.496.434l3.5 26.25c.142 1.067-.14 2.126-.794 2.981-.653.855-1.602 1.405-2.669 1.547-.181.025-.362.037-.541.037zm-2.996-4.433c-.034.271-.034.548 0 .803.106.802.52 1.515 1.163 2.007s1.439.703 2.241.597c.803-.107 1.516-.52 2.008-1.163.491-.643.703-1.439.596-2.242l-3.004-22.534z" fill="#63312d"/><path d="m30.354 48.152c0 .748-.606 1.354-1.354 1.354s-1.354-.606-1.354-1.354.606-1.354 1.354-1.354 1.354.606 1.354 1.354z" fill="#f8f3f3"/><g fill="#63312d"><path d="m29 50.006c-1.022 0-1.854-.832-1.854-1.854s.831-1.854 1.854-1.854 1.854.832 1.854 1.854-.832 1.854-1.854 1.854zm0-2.708c-.471 0-.854.383-.854.854s.383.854.854.854.854-.383.854-.854-.383-.854-.854-.854z"/><path d="m32.665 13.386h2.265v1h-2.265z" transform="matrix(.256 -.967 .967 .256 11.727 43.007)"/><path d="m10.359 26.095h1v2.267h-1z" transform="matrix(.256 -.967 .967 .256 -18.242 30.753)"/><path d="m46.641 35.691h1v2.266h-1z" transform="matrix(.256 -.967 .967 .256 -.516 72.977)"/><path d="m41.041 18.16h2.265v1h-2.265z" transform="matrix(.701 -.713 .713 .701 -.703 35.643)"/><path d="m15.133 17.723h1v2.266h-1z" transform="matrix(.702 -.713 .713 .702 -8.771 16.763)"/><path d="m9.772 36.491h2.263v1h-2.263z" transform="matrix(.964 -.266 .266 .964 -9.436 4.226)"/><path d="m45.966 26.562h2.264v1h-2.264z" transform="matrix(.965 -.264 .264 .965 -5.468 13.373)"/><path d="m23.536 12.799h1v2.262h-1z" transform="matrix(.964 -.265 .265 .964 -2.833 6.87)"/></g></svg>